<?xml version="1.0" standalone="no"?>
<svg viewBox="0 0 200 200" xmlns="http://www.w3.org/2000/svg">
  <path fill="#FFD6E8" d="M44.6,-78.2C56.7,-70.3,64.6,-56.1,72.5,-42C80.4,-27.9,88.3,-14,87.2,-0.6C86.1,12.7,76,25.4,66.7,37C57.4,48.6,48.8,59.2,37.8,66.9C26.8,74.5,13.4,79.3,0.4,78.7C-12.7,78,-25.4,72,-39.2,65.9C-53.1,59.9,-68.2,54,-76.6,43C-85.1,32,-87,16,-86.7,0.2C-86.4,-15.6,-83.8,-31.3,-76.5,-44.4C-69.3,-57.5,-57.3,-68,-43.8,-75.1C-30.3,-82.2,-15.1,-85.8,0.6,-86.8C16.3,-87.8,32.5,-86.1,44.6,-78.2Z" transform="translate(100 100)" />
</svg>
