<?xml version="1.0" standalone="no"?>
<svg viewBox="0 0 200 200" xmlns="http://www.w3.org/2000/svg">
  <path fill="#0F62FE" d="M30.8,-50C43.6,-46,60.1,-45.1,68.5,-37.3C76.9,-29.5,77.1,-14.7,76.7,-0.2C76.4,14.3,75.4,28.7,68.1,38.4C60.8,48,47.2,53.1,34.8,55.4C22.4,57.6,11.2,57.1,-2.3,61C-15.7,64.9,-31.4,73.3,-44.5,71.4C-57.5,69.5,-67.8,57.3,-71.8,43.7C-75.8,30.1,-73.5,15,-69.4,2.4C-65.3,-10.3,-59.5,-20.6,-52.4,-29C-45.4,-37.3,-37.1,-43.7,-28.2,-50C-19.3,-56.2,-9.6,-62.3,-0.3,-61.8C9,-61.2,18,-54,30.8,-50Z" transform="translate(100 100)" />
</svg>
