<?xml version="1.0" standalone="no"?>
<svg viewBox="0 0 200 200" xmlns="http://www.w3.org/2000/svg">
  <path fill="#E8DAFF" d="M41.4,-70.8C53.8,-64.6,64.1,-53.8,70,-41.2C75.8,-28.6,77.3,-14.3,79.3,1.2C81.4,16.6,83.9,33.3,78.6,46.8C73.3,60.3,60.1,70.8,45.7,75.9C31.2,81.1,15.6,81.1,0.7,79.8C-14.1,78.5,-28.3,76,-39.9,69.2C-51.4,62.3,-60.5,51.2,-66.7,39C-73,26.8,-76.4,13.4,-79.2,-1.6C-81.9,-16.6,-84,-33.2,-78.8,-47.2C-73.7,-61.3,-61.2,-72.9,-46.8,-78C-32.5,-83.1,-16.2,-81.7,-0.9,-80.2C14.5,-78.7,29,-77.1,41.4,-70.8Z" transform="translate(100 100)" />
</svg>
