<?xml version="1.0" standalone="no"?>
<svg viewBox="0 0 200 200" xmlns="http://www.w3.org/2000/svg">
  <path fill="#F5F3FF" d="M39.1,-66.2C53.2,-59.7,68.7,-54.2,79,-43.3C89.2,-32.4,94.2,-16.2,93.8,-0.2C93.4,15.8,87.7,31.5,78.1,43.5C68.5,55.6,55,63.8,41.4,72.1C27.7,80.4,13.9,88.7,-1,90.5C-16,92.3,-31.9,87.6,-44.4,78.7C-56.9,69.7,-65.9,56.5,-73.6,42.7C-81.2,28.9,-87.4,14.4,-89.2,-1C-90.9,-16.4,-88.2,-32.9,-80.3,-46.3C-72.5,-59.7,-59.5,-70.1,-45.2,-76.5C-31,-83,-15.5,-85.4,-1.5,-82.9C12.5,-80.3,25.1,-72.7,39.1,-66.2Z" transform="translate(100 100)" />
</svg>
