<?xml version="1.0" encoding="utf-8"?>
<!-- Generator: Adobe Illustrator 21.1.0, SVG Export Plug-In . SVG Version: 6.00 Build 0)  -->
<svg version="1.1" id="Layer_1" xmlns="http://www.w3.org/2000/svg" xmlns:xlink="http://www.w3.org/1999/xlink" x="0px" y="0px"
	 viewBox="0 0 360 216" style="enable-background:new 0 0 360 216;" xml:space="preserve">
<style type="text/css">
	.st0{fill:#EFAFA2;}
</style>
<g>
	<path class="st0" d="M46.3,128.6H60c1.3,0,2.6,0.2,3.9,0.5c1.3,0.3,2.4,0.8,3.4,1.5c1,0.7,1.8,1.6,2.4,2.7c0.6,1.1,0.9,2.5,0.9,4.1
		c0,2-0.6,3.6-1.7,4.9c-1.1,1.3-2.6,2.2-4.4,2.8v0.1c1.1,0.1,2.1,0.4,3,0.9c0.9,0.5,1.7,1.1,2.4,1.8c0.7,0.7,1.2,1.6,1.6,2.6
		c0.4,1,0.6,2,0.6,3.1c0,1.9-0.4,3.5-1.1,4.8c-0.8,1.3-1.8,2.3-3,3.1c-1.2,0.8-2.7,1.3-4.2,1.7c-1.6,0.3-3.2,0.5-4.9,0.5H46.3V128.6
		z M52.6,142.9h5.7c2.1,0,3.6-0.4,4.7-1.2c1-0.8,1.6-1.9,1.6-3.2c0-1.5-0.5-2.6-1.6-3.4c-1.1-0.7-2.8-1.1-5.2-1.1h-5.1V142.9z
		 M52.6,158.3h5.7c0.8,0,1.6-0.1,2.5-0.1c0.9-0.1,1.7-0.3,2.5-0.7c0.8-0.4,1.4-0.9,1.9-1.6c0.5-0.7,0.7-1.6,0.7-2.7
		c0-1.8-0.6-3.1-1.8-3.9c-1.2-0.7-3.1-1.1-5.6-1.1h-6V158.3z"/>
	<path class="st0" d="M80.8,128.6H93c1.7,0,3.3,0.2,4.9,0.5c1.6,0.3,3,0.8,4.2,1.6c1.2,0.8,2.2,1.8,2.9,3.1c0.7,1.3,1.1,2.9,1.1,4.9
		c0,2.5-0.7,4.7-2.1,6.4c-1.4,1.7-3.4,2.8-6,3.1l9.3,15.5h-7.5l-8.1-14.8H87v14.8h-6.2V128.6z M91.9,143.5c0.9,0,1.8,0,2.7-0.1
		c0.9-0.1,1.7-0.3,2.4-0.6c0.7-0.3,1.3-0.8,1.8-1.4c0.5-0.6,0.7-1.5,0.7-2.7c0-1-0.2-1.8-0.6-2.5c-0.4-0.6-1-1.1-1.7-1.4
		c-0.7-0.3-1.5-0.5-2.3-0.6c-0.8-0.1-1.7-0.1-2.4-0.1H87v9.5H91.9z"/>
	<path class="st0" d="M127.5,128.6h5.4l15.1,35h-7.1l-3.3-8h-15.2l-3.2,8h-7L127.5,128.6z M135.4,150.3L130,136l-5.5,14.2H135.4z"/>
	<path class="st0" d="M184.8,128.6H208v5.6h-16.9v8.6h16v5.6h-16v9.5h17.8v5.6h-24V128.6z"/>
	<path d="M217.5,128.6h6.2v14.8h0.3l14.5-14.8h8.4l-16.3,16.1l17.4,18.8h-8.7l-15.2-17.2h-0.3v17.2h-6.2V128.6z"/>
	<path d="M253.8,128.6h23.2v5.6H260v8.6h16v5.6h-16v9.5h17.8v5.6h-24V128.6z"/>
	<path d="M295,148.6l-13.1-20h7.8l8.6,13.9l8.7-13.9h7.4l-13.1,20v15H295V148.6z"/>
	<path d="M222.6,179.4h-5.1v-1.3H229v1.3H224V193h-1.4V179.4z"/>
	<path d="M232.4,178.1h1.4v6.6h8.3v-6.6h1.4V193h-1.4v-7.1h-8.3v7.1h-1.4V178.1z"/>
	<path d="M248.6,178.1h9.1v1.3H250v5.3h7.2v1.3H250v5.8h8v1.3h-9.4V178.1z"/>
	<path d="M262.1,178.1h3.9c0.2,0,0.5,0,0.8,0c0.3,0,0.7,0.1,1.1,0.1c0.4,0.1,0.8,0.2,1.2,0.3c0.4,0.2,0.8,0.4,1.1,0.7
		c0.3,0.3,0.6,0.7,0.8,1.1c0.2,0.4,0.3,1,0.3,1.6c0,0.7-0.1,1.3-0.4,1.8c-0.2,0.5-0.6,0.8-0.9,1.1c-0.4,0.3-0.8,0.5-1.2,0.6
		c-0.4,0.1-0.9,0.2-1.3,0.3l4.3,7.1h-1.6l-4.2-7.1h-2.6v7.1h-1.4V178.1z M263.5,184.7h2.9c0.7,0,1.3-0.1,1.8-0.3
		c0.5-0.2,0.8-0.4,1.1-0.7c0.3-0.3,0.4-0.6,0.5-0.9c0.1-0.3,0.1-0.6,0.1-0.8s0-0.5-0.1-0.8c-0.1-0.3-0.3-0.6-0.5-0.9
		c-0.3-0.3-0.6-0.5-1.1-0.7c-0.5-0.2-1-0.3-1.8-0.3h-2.9V184.7z"/>
	<path d="M280.2,178.1h1.4l6.3,14.9h-1.6l-1.6-3.9h-7.9l-1.7,3.9h-1.4L280.2,178.1z M280.8,179.6l-3.5,8.2h6.8L280.8,179.6z"/>
	<path d="M291.1,178.1h4.3c0.5,0,1.1,0.1,1.6,0.2c0.6,0.1,1.1,0.3,1.6,0.6c0.5,0.3,0.9,0.7,1.2,1.2c0.3,0.5,0.5,1.2,0.5,1.9
		c0,0.7-0.1,1.3-0.4,1.7c-0.2,0.5-0.6,0.9-1,1.2c-0.4,0.3-0.9,0.5-1.4,0.7c-0.5,0.2-1.1,0.2-1.7,0.2h-3.2v7.1h-1.4V178.1z
		 M292.4,184.7h3.2c0.4,0,0.8,0,1.2-0.1c0.4-0.1,0.7-0.2,1-0.4c0.3-0.2,0.5-0.5,0.7-0.8c0.2-0.3,0.3-0.7,0.3-1.2
		c0-0.5-0.1-0.9-0.3-1.2c-0.2-0.3-0.4-0.6-0.7-0.8c-0.3-0.2-0.6-0.4-1-0.5c-0.4-0.1-0.8-0.1-1.2-0.1h-3.1V184.7z"/>
	<path d="M307.5,186.6l-5.5-8.5h1.7l4.5,7.1l4.6-7.1h1.6l-5.5,8.5v6.4h-1.4V186.6z"/>
	<path class="st0" d="M194.1,44.9c-3.5-1.9-7-2.2-10.1-0.7c-0.3-3.4-2.8-7.3-10.7-11.1c-10.9-5.2-16.1-3.6-19.2-0.1
		c-0.3-2.1-1.2-4.4-3.4-6.3c-4.1-3.6-11.3-4.5-22.8-3c-6.2,0.8-8,4.6-8.6,8c-1.1-1.4-2.5-2.7-4.6-3.5c-4.7-1.9-11.3-1.1-20,2.6
		c-2.5,1-6,3.4-6.5,8.7c-3.6-1.1-8-0.7-13.2,1.2c-6.1,2.3-10,5.5-11.6,9.7c-0.7,1.8-0.9,3.6-0.8,5c-4.4,0.8-8.4,2.8-11.5,5.9
		c-3.5,3.5-5.4,8-5.4,12.7v22.2c0,10.4,9.4,18.9,20.9,18.9h72.9l19.6,48.5h5.4l18.8-45.7l1.2-2.7l7.1,0c11.5,0,17.7-8.5,17.7-18.9
		V74C209.3,62.6,202.5,49.6,194.1,44.9z M202.7,96.2c0,6.8-3.3,12.3-11.1,12.3l-9.1,0c-1.4,0-2.6,0.8-3.1,2.1l-2.4,6.5
		c0,0,0,0,0,0.1l-14.9,37.8L147,116.2c0,0,0,0,0,0l0-0.1l-0.8-2.1h0l-1.3-3.3c-0.5-1.3-1.7-2.1-3.1-2.1h-6.4
		c0.3-2.4,0.5-4.9,0.2-7.3c0.1-0.1,0.1-0.2,0.2-0.3c3.3-7.3,9.6-6.9,15.4-2.8c3.7,2.6,7.4,4.1,11.9,2.8c4.5-1.3,2.7-8.4-1.8-7.1
		c-4.1,1.2-7.6-3.4-10.9-4.8c-2.5-1.1-5.2-1.6-8-1.3c-4.1,0.4-7.7,2.4-10.3,5.5c-1.1-1-2.4-1.9-4-2.6c-4.3-1.7-9.4-0.9-13.8-0.8
		c-0.3,0-0.6,0-0.9,0c1-4.8-0.9-9.8-5.7-12.5c-4.1-2.3-7.9,3.9-3.8,6.2c2.4,1.3,3.5,4.2,1.7,6.6c-3.6,0.1-7.2,0.2-10.8,0.3
		c-4.7,0.2-4.8,7.5-0.1,7.3c6.1-0.2,12.1-0.4,18.2-0.6c2.6-0.1,5.5-0.4,8.2-0.2c9.6,0.7,7.4,11.6,7.4,11.6l-61.7,0
		c-7.9,0-14.3-5.5-14.3-12.3V74c0-2.9,1.3-5.7,3.5-8c5.4-5.7,14.4-4.6,15.9-4.4c3.1,0.4,7.2,1.3,10,2.5c2.9,1.3,4.8,3.2,3.5,6.5
		c-1.3,3.3-12.5,0.9-15.1,1.5c-7.3,1.5-12.2,8.6-11.5,15.9c0.5,4.6,7.8,4.8,7.3,0.1c-0.3-3.2,0.7-6.4,3.6-8.1
		c2.1-1.2,4.6-1.1,7.1-0.9c0.1,0.2,0.3,0.3,0.4,0.5c2.1,2,2.6,4.5,1.5,7.1c-0.8,1.8,0.8,4,2.5,4.5c2.1,0.6,3.8-0.7,4.5-2.5
		c1.4-3.3,1.1-7.1-0.4-10.4c2.8-0.9,5.2-4.2,6.2-7.3C96,56.4,77.3,55.9,69,55c-0.1-2.3,0.5-3.5,1.8-4.7c1.7-1.5,2.2-1.9,6.4-3.5
		c8.8-3.3,11,0,12,1.3c0.2,0.3,6.3,16.2,23,16.1c3.8,0,8-0.3,11.9-1.1c-0.2,2.8,0.7,5.6,2.6,7.8c4.4,4.9,11.1,4.9,17.1,4.3
		c4.6-0.5,4.8-7.8,0.1-7.3c-3.2,0.3-6.9,0.9-9.9-0.5c-2.1-1-3.7-3.4-0.1-8.5c1.2-1.7,4.4-8.3,5.9-8.2c4.7,0.2,4.8-7.1,0.1-7.3
		c-8.2-0.4-6.6,7.3-12.3,11c-8.6,5.6-22.6,8.3-32.4-9.3c-2.9-5.3,0-7.4,1.9-8.2c8.7-3.6,13-3.4,15-2.6c1.8,0.8,2.6,2.3,3.5,4.4
		c0.7,1.7,1.9,4.8,5.3,4.4c4.6-0.5,4.6-5.3,4.6-7.6c0-3.9,0.3-4.9,3.1-5.3c12.1-1.6,16.2,0.2,17.6,1.4c1.3,1.1,1.4,2.7,1.4,5
		c0,2,0,5.6,3.5,6.6c3.9,1,5.8-2.4,6.5-3.9c1.3-2.5,2.6-5,12.7-0.2c8.1,3.8,7.2,6.2,6.6,7.7c-0.3,0.9-0.9,2.5,0,4
		c0.6,1,1.5,1.6,2.7,1.8c2.3,0.4,3.9,0.5,5.6-1.3c0.2-0.3,0.5-0.5,1.2-1c0.4-0.3,1.7-1.1,4.3,0.4c5.5,3.1,11.8,14.7,11.9,24.4
		c-0.9,0.2-15.4,1.5-22,1.7c-4.3,0.1-7.8-2.1-9.5-6.6c-0.7-1.8,0.1-5-0.4-7.1c-1.3-6.3-6.5-10.5-12.8-8.5c-4.5,1.4-2.7,8.5,1.8,7.1
		c4.3-1.4,4.1,12.1,5.1,14.8c1.2,3.1,3.2,5.4,6.3,6.7c2.8,1.1,6.1,1.6,9.5,1.6c-2,5.5-0.9,11.8,2.9,16.5c2.9,3.7,8.2-1.4,5.3-5
		c-2.8-3.5-2.4-8.2,0.2-11.7c0.1-0.1,0.1-0.2,0.2-0.4c4.6-0.6,9.2-1.4,13.2-2V96.2z"/>
</g>
</svg>
